<svg xmlns="http://www.w3.org/2000/svg" viewBox="0 0 48 48" fill="none">
  <defs>
    <linearGradient id="chat-grad" x1="4" y1="6" x2="44" y2="38" gradientUnits="userSpaceOnUse">
      <stop offset="0%" stop-color="#c4b5fd"/>
      <stop offset="50%" stop-color="#a78bfa"/>
      <stop offset="100%" stop-color="#8b5cf6"/>
    </linearGradient>
    <linearGradient id="chat-shine" x1="8" y1="6" x2="40" y2="34" gradientUnits="userSpaceOnUse">
      <stop offset="0%" stop-color="#ddd6fe" stop-opacity="0.5"/>
      <stop offset="100%" stop-color="#8b5cf6" stop-opacity="0"/>
    </linearGradient>
  </defs>
  <path d="M6 10c0-2.2 1.8-4 4-4h28c2.2 0 4 1.8 4 4v20c0 2.2-1.8 4-4 4H18l-8 8v-8h0c-2.2 0-4-1.8-4-4V10z" fill="url(#chat-grad)" stroke="#7c3aed" stroke-width="1.5" stroke-linejoin="round"/>
  <path d="M6 10c0-2.2 1.8-4 4-4h28c2.2 0 4 1.8 4 4v20c0 2.2-1.8 4-4 4H18l-8 8v-8h0c-2.2 0-4-1.8-4-4V10z" fill="url(#chat-shine)"/>
  <circle cx="16" cy="20" r="2.5" fill="#e9d5ff"/>
  <circle cx="24" cy="20" r="2.5" fill="#e9d5ff"/>
  <circle cx="32" cy="20" r="2.5" fill="#e9d5ff"/>
</svg>
